<mxfile host="Electron" agent="Mozilla/5.0 (Windows NT 10.0; Win64; x64) AppleWebKit/537.36 (KHTML, like Gecko) draw.io/24.7.17 Chrome/128.0.6613.36 Electron/32.0.1 Safari/537.36" version="24.7.17">
  <diagram name="Seite-1" id="So4crxQWN6aM3Vayv6w6">
    <mxGraphModel dx="1098" dy="828" grid="1" gridSize="10" guides="1" tooltips="1" connect="1" arrows="1" fold="1" page="1" pageScale="1" pageWidth="827" pageHeight="1169" math="0" shadow="0">
      <root>
        <mxCell id="0" />
        <mxCell id="1" parent="0" />
        <mxCell id="dLK1isF2_OYpq4f8DQOs-24" value="" style="edgeStyle=orthogonalEdgeStyle;rounded=0;orthogonalLoop=1;jettySize=auto;html=1;" edge="1" parent="1" source="dLK1isF2_OYpq4f8DQOs-4" target="dLK1isF2_OYpq4f8DQOs-9">
          <mxGeometry relative="1" as="geometry" />
        </mxCell>
        <mxCell id="dLK1isF2_OYpq4f8DQOs-4" value="Packer" style="swimlane;fontStyle=0;childLayout=stackLayout;horizontal=1;startSize=30;horizontalStack=0;resizeParent=1;resizeParentMax=0;resizeLast=0;collapsible=1;marginBottom=0;whiteSpace=wrap;html=1;" vertex="1" parent="1">
          <mxGeometry x="85" y="90" width="140" height="90" as="geometry" />
        </mxCell>
        <mxCell id="dLK1isF2_OYpq4f8DQOs-5" value="- Loader-Code" style="text;strokeColor=none;fillColor=none;align=left;verticalAlign=middle;spacingLeft=4;spacingRight=4;overflow=hidden;points=[[0,0.5],[1,0.5]];portConstraint=eastwest;rotatable=0;whiteSpace=wrap;html=1;" vertex="1" parent="dLK1isF2_OYpq4f8DQOs-4">
          <mxGeometry y="30" width="140" height="30" as="geometry" />
        </mxCell>
        <mxCell id="dLK1isF2_OYpq4f8DQOs-6" value="- Malware-files" style="text;strokeColor=none;fillColor=none;align=left;verticalAlign=middle;spacingLeft=4;spacingRight=4;overflow=hidden;points=[[0,0.5],[1,0.5]];portConstraint=eastwest;rotatable=0;whiteSpace=wrap;html=1;" vertex="1" parent="dLK1isF2_OYpq4f8DQOs-4">
          <mxGeometry y="60" width="140" height="30" as="geometry" />
        </mxCell>
        <mxCell id="dLK1isF2_OYpq4f8DQOs-15" value="" style="edgeStyle=orthogonalEdgeStyle;rounded=0;orthogonalLoop=1;jettySize=auto;html=1;" edge="1" parent="1" source="dLK1isF2_OYpq4f8DQOs-9" target="dLK1isF2_OYpq4f8DQOs-10">
          <mxGeometry relative="1" as="geometry" />
        </mxCell>
        <mxCell id="dLK1isF2_OYpq4f8DQOs-9" value="Compile malware into shared library" style="rounded=1;whiteSpace=wrap;html=1;absoluteArcSize=1;arcSize=14;strokeWidth=2;" vertex="1" parent="1">
          <mxGeometry x="100" y="220" width="110" height="60" as="geometry" />
        </mxCell>
        <mxCell id="dLK1isF2_OYpq4f8DQOs-16" value="" style="edgeStyle=orthogonalEdgeStyle;rounded=0;orthogonalLoop=1;jettySize=auto;html=1;" edge="1" parent="1" source="dLK1isF2_OYpq4f8DQOs-10" target="dLK1isF2_OYpq4f8DQOs-11">
          <mxGeometry relative="1" as="geometry" />
        </mxCell>
        <mxCell id="dLK1isF2_OYpq4f8DQOs-10" value="Extract information of the compiled shared library" style="rounded=1;whiteSpace=wrap;html=1;absoluteArcSize=1;arcSize=14;strokeWidth=2;" vertex="1" parent="1">
          <mxGeometry x="100" y="310" width="110" height="60" as="geometry" />
        </mxCell>
        <mxCell id="dLK1isF2_OYpq4f8DQOs-17" value="" style="edgeStyle=orthogonalEdgeStyle;rounded=0;orthogonalLoop=1;jettySize=auto;html=1;" edge="1" parent="1" source="dLK1isF2_OYpq4f8DQOs-11" target="dLK1isF2_OYpq4f8DQOs-12">
          <mxGeometry relative="1" as="geometry" />
        </mxCell>
        <mxCell id="dLK1isF2_OYpq4f8DQOs-11" value="Encrypt the bytecode of the shared library" style="rounded=1;whiteSpace=wrap;html=1;absoluteArcSize=1;arcSize=14;strokeWidth=2;" vertex="1" parent="1">
          <mxGeometry x="100" y="400" width="110" height="60" as="geometry" />
        </mxCell>
        <mxCell id="dLK1isF2_OYpq4f8DQOs-26" value="" style="edgeStyle=orthogonalEdgeStyle;rounded=0;orthogonalLoop=1;jettySize=auto;html=1;" edge="1" parent="1" source="dLK1isF2_OYpq4f8DQOs-12" target="dLK1isF2_OYpq4f8DQOs-13">
          <mxGeometry relative="1" as="geometry" />
        </mxCell>
        <mxCell id="dLK1isF2_OYpq4f8DQOs-12" value="Insert required information into the loader.c code" style="rounded=1;whiteSpace=wrap;html=1;absoluteArcSize=1;arcSize=14;strokeWidth=2;" vertex="1" parent="1">
          <mxGeometry x="100" y="490" width="110" height="60" as="geometry" />
        </mxCell>
        <mxCell id="dLK1isF2_OYpq4f8DQOs-13" value="Compile the loader with the embedded malware code" style="rounded=1;whiteSpace=wrap;html=1;absoluteArcSize=1;arcSize=14;strokeWidth=2;" vertex="1" parent="1">
          <mxGeometry x="100" y="584.5" width="110" height="60" as="geometry" />
        </mxCell>
        <mxCell id="dLK1isF2_OYpq4f8DQOs-19" value="Bytecode" style="strokeWidth=2;html=1;shape=mxgraph.flowchart.direct_data;whiteSpace=wrap;" vertex="1" parent="1">
          <mxGeometry x="260" y="280" width="130" height="30" as="geometry" />
        </mxCell>
        <mxCell id="dLK1isF2_OYpq4f8DQOs-20" value="Entry-Address" style="strokeWidth=2;html=1;shape=mxgraph.flowchart.direct_data;whiteSpace=wrap;" vertex="1" parent="1">
          <mxGeometry x="260" y="320" width="130" height="30" as="geometry" />
        </mxCell>
        <mxCell id="dLK1isF2_OYpq4f8DQOs-21" value="GOT-Entries" style="strokeWidth=2;html=1;shape=mxgraph.flowchart.direct_data;whiteSpace=wrap;" vertex="1" parent="1">
          <mxGeometry x="260" y="360" width="130" height="30" as="geometry" />
        </mxCell>
        <mxCell id="dLK1isF2_OYpq4f8DQOs-22" value="" style="strokeWidth=2;html=1;shape=mxgraph.flowchart.annotation_2;align=left;labelPosition=right;pointerEvents=1;" vertex="1" parent="1">
          <mxGeometry x="210" y="270" width="50" height="140" as="geometry" />
        </mxCell>
      </root>
    </mxGraphModel>
  </diagram>
</mxfile>
